<svg width="31" height="26" viewBox="0 0 31 26" fill="none" xmlns="http://www.w3.org/2000/svg">
<path d="M5.33333 9.99996C5.68695 9.99996 6.02609 10.1404 6.27614 10.3905C6.52619 10.6405 6.66667 10.9797 6.66667 11.3333C8.76152 11.3302 10.796 12.035 12.44 13.3333H15.3333C17.1107 13.3333 18.7067 14.1066 19.8053 15.3333H24C25.2603 15.3329 26.495 15.6899 27.5607 16.3627C28.6264 17.0355 29.4796 17.9966 30.0213 19.1346C26.868 23.296 21.7627 26 16 26C12.28 26 9.13333 25.196 6.58667 23.7893C6.49339 24.0467 6.32299 24.2691 6.09869 24.4261C5.87439 24.5831 5.60712 24.6671 5.33333 24.6666H1.33333C0.979711 24.6666 0.640573 24.5262 0.390524 24.2761C0.140476 24.0261 0 23.6869 0 23.3333V11.3333C0 10.9797 0.140476 10.6405 0.390524 10.3905C0.640573 10.1404 0.979711 9.99996 1.33333 9.99996H5.33333ZM6.668 14L6.66667 20.696L6.72667 20.7386C9.12 22.4186 12.2373 23.3333 16 23.3333C20.0053 23.3333 23.732 21.792 26.4467 19.16L26.624 18.9826L26.464 18.8493C25.8344 18.3562 25.0712 18.0635 24.2733 18.0093L24 18H21.1853C21.2813 18.4293 21.3333 18.8746 21.3333 19.3333V20.6666H9.33333V18L18.3867 17.9986L18.3413 17.8946C18.0858 17.3607 17.6928 16.9044 17.2026 16.5726C16.7124 16.2408 16.1427 16.0454 15.552 16.0066L15.3333 16H11.4267C10.8071 15.3663 10.067 14.8629 9.25003 14.5194C8.43303 14.1759 7.55559 13.9993 6.66933 14H6.668ZM4 12.6666H2.66667V22H4V12.6666ZM22.6667 4.66663C23.7275 4.66663 24.7449 5.08805 25.4951 5.8382C26.2452 6.58834 26.6667 7.60576 26.6667 8.66663C26.6667 9.72749 26.2452 10.7449 25.4951 11.4951C24.7449 12.2452 23.7275 12.6666 22.6667 12.6666C21.6058 12.6666 20.5884 12.2452 19.8382 11.4951C19.0881 10.7449 18.6667 9.72749 18.6667 8.66663C18.6667 7.60576 19.0881 6.58834 19.8382 5.8382C20.5884 5.08805 21.6058 4.66663 22.6667 4.66663ZM22.6667 7.33329C22.313 7.33329 21.9739 7.47377 21.7239 7.72382C21.4738 7.97387 21.3333 8.313 21.3333 8.66663C21.3333 9.02025 21.4738 9.35939 21.7239 9.60944C21.9739 9.85948 22.313 9.99996 22.6667 9.99996C23.0203 9.99996 23.3594 9.85948 23.6095 9.60944C23.8595 9.35939 24 9.02025 24 8.66663C24 8.313 23.8595 7.97387 23.6095 7.72382C23.3594 7.47377 23.0203 7.33329 22.6667 7.33329ZM13.3333 0.666626C14.3942 0.666626 15.4116 1.08805 16.1618 1.8382C16.9119 2.58834 17.3333 3.60576 17.3333 4.66663C17.3333 5.72749 16.9119 6.74491 16.1618 7.49505C15.4116 8.2452 14.3942 8.66663 13.3333 8.66663C12.2725 8.66663 11.2551 8.2452 10.5049 7.49505C9.75476 6.74491 9.33333 5.72749 9.33333 4.66663C9.33333 3.60576 9.75476 2.58834 10.5049 1.8382C11.2551 1.08805 12.2725 0.666626 13.3333 0.666626ZM13.3333 3.33329C12.9797 3.33329 12.6406 3.47377 12.3905 3.72382C12.1405 3.97387 12 4.313 12 4.66663C12 5.02025 12.1405 5.35939 12.3905 5.60944C12.6406 5.85948 12.9797 5.99996 13.3333 5.99996C13.687 5.99996 14.0261 5.85948 14.2761 5.60944C14.5262 5.35939 14.6667 5.02025 14.6667 4.66663C14.6667 4.313 14.5262 3.97387 14.2761 3.72382C14.0261 3.47377 13.687 3.33329 13.3333 3.33329Z" fill="white"/>
</svg>
