<svg width="16" height="16" viewBox="0 0 16 16" fill="none" xmlns="http://www.w3.org/2000/svg">
<g clip-path="url(#clip0_367_21090)">
<path d="M1.33203 4.26797C1.33203 4.10884 1.39525 3.95623 1.50777 3.84371C1.62029 3.73119 1.7729 3.66797 1.93203 3.66797H8.0507C8.13969 3.66772 8.22783 3.68528 8.30992 3.71963C8.39202 3.75398 8.4664 3.80442 8.5287 3.86797L10.4767 5.87197C10.5982 5.9969 10.6659 6.16441 10.6654 6.33864V15.068C10.6654 15.2271 10.6022 15.3797 10.4896 15.4922C10.3771 15.6048 10.2245 15.668 10.0654 15.668H1.93203C1.7729 15.668 1.62029 15.6048 1.50777 15.4922C1.39525 15.3797 1.33203 15.2271 1.33203 15.068V4.26797Z" stroke="white" stroke-width="1.5" stroke-linecap="round" stroke-linejoin="round"/>
<path d="M5.33203 3.66538V0.932052C5.33203 0.772922 5.39525 0.620309 5.50777 0.507788C5.62029 0.395266 5.7729 0.332052 5.93203 0.332052H12.0507C12.1402 0.331351 12.229 0.348699 12.3117 0.383061C12.3944 0.417424 12.4693 0.468095 12.532 0.532052L14.48 2.53605C14.6015 2.66098 14.6692 2.82848 14.6687 3.00272V11.7321C14.6687 11.8912 14.6055 12.0438 14.493 12.1563C14.3804 12.2688 14.2278 12.332 14.0687 12.332H10.6654" stroke="white" stroke-width="1.5" stroke-linecap="round" stroke-linejoin="round"/>
</g>
<defs>
<clipPath id="clip0_367_21090">
<rect width="16" height="16" fill="white"/>
</clipPath>
</defs>
</svg>
