<svg width="27" height="28" viewBox="0 0 27 28" fill="none" xmlns="http://www.w3.org/2000/svg">
<path d="M13.3333 27.3333C5.96933 27.3333 0 21.364 0 14C0 6.63596 5.96933 0.666626 13.3333 0.666626C20.6973 0.666626 26.6667 6.63596 26.6667 14C26.6667 21.364 20.6973 27.3333 13.3333 27.3333ZM13.3333 24.6666C16.1623 24.6666 18.8754 23.5428 20.8758 21.5424C22.8762 19.542 24 16.8289 24 14C24 11.171 22.8762 8.45787 20.8758 6.45749C18.8754 4.4571 16.1623 3.33329 13.3333 3.33329C10.5044 3.33329 7.79125 4.4571 5.79086 6.45749C3.79047 8.45787 2.66667 11.171 2.66667 14C2.66667 16.8289 3.79047 19.542 5.79086 21.5424C7.79125 23.5428 10.5044 24.6666 13.3333 24.6666ZM8.66667 16.6666H16C16.1768 16.6666 16.3464 16.5964 16.4714 16.4714C16.5964 16.3463 16.6667 16.1768 16.6667 16C16.6667 15.8231 16.5964 15.6536 16.4714 15.5286C16.3464 15.4035 16.1768 15.3333 16 15.3333H10.6667C9.78261 15.3333 8.93476 14.9821 8.30964 14.357C7.68452 13.7319 7.33333 12.884 7.33333 12C7.33333 11.1159 7.68452 10.2681 8.30964 9.64294C8.93476 9.01781 9.78261 8.66663 10.6667 8.66663H12V5.99996H14.6667V8.66663H18V11.3333H10.6667C10.4899 11.3333 10.3203 11.4035 10.1953 11.5286C10.0702 11.6536 10 11.8231 10 12C10 12.1768 10.0702 12.3463 10.1953 12.4714C10.3203 12.5964 10.4899 12.6666 10.6667 12.6666H16C16.8841 12.6666 17.7319 13.0178 18.357 13.6429C18.9821 14.2681 19.3333 15.1159 19.3333 16C19.3333 16.884 18.9821 17.7319 18.357 18.357C17.7319 18.9821 16.8841 19.3333 16 19.3333H14.6667V22H12V19.3333H8.66667V16.6666Z" fill="white"/>
</svg>
