<svg width="32" height="32" viewBox="0 0 32 32" fill="none" xmlns="http://www.w3.org/2000/svg">
<path d="M24.0535 18.0667C23.4935 18.6134 23.1735 19.4 23.2535 20.24C23.3735 21.68 24.6935 22.7334 26.1335 22.7334H28.6668V24.32C28.6668 27.08 26.4135 29.3334 23.6535 29.3334H10.1868C11.2935 28.36 12.0002 26.9334 12.0002 25.3334C12.0002 22.3867 9.6135 20 6.66683 20C5.4135 20 4.2535 20.44 3.3335 21.1734V15.3467C3.3335 12.5867 5.58682 10.3334 8.34682 10.3334H23.6535C26.4135 10.3334 28.6668 12.5867 28.6668 15.3467V17.2667H25.9735C25.2268 17.2667 24.5468 17.56 24.0535 18.0667Z" stroke="white" stroke-width="1.8" stroke-linecap="round" stroke-linejoin="round"/>
<path d="M3.3335 15.3467V10.4534C3.3335 8.86673 4.30682 7.45334 5.78682 6.89334L16.3735 2.89334C18.0268 2.28 19.8002 3.49338 19.8002 5.26671V10.3334" stroke="white" stroke-width="1.8" stroke-linecap="round" stroke-linejoin="round"/>
<path d="M30.0786 18.6269V21.3737C30.0786 22.107 29.4919 22.7069 28.7452 22.7336H26.1319C24.6919 22.7336 23.3719 21.6803 23.2519 20.2403C23.1719 19.4003 23.4919 18.6136 24.0519 18.0669C24.5452 17.5603 25.2252 17.267 25.9719 17.267H28.7452C29.4919 17.2936 30.0786 17.8936 30.0786 18.6269Z" stroke="white" stroke-width="1.8" stroke-linecap="round" stroke-linejoin="round"/>
<path d="M9.3335 16H18.6668" stroke="white" stroke-width="1.8" stroke-linecap="round" stroke-linejoin="round"/>
<path d="M12.0002 25.3333C12.0002 26.9333 11.2935 28.36 10.1868 29.3333C9.24016 30.16 8.0135 30.6667 6.66683 30.6667C3.72016 30.6667 1.3335 28.28 1.3335 25.3333C1.3335 23.6533 2.10683 22.1467 3.3335 21.1733C4.2535 20.44 5.4135 20 6.66683 20C9.6135 20 12.0002 22.3867 12.0002 25.3333Z" stroke="white" stroke-width="1.8" stroke-miterlimit="10" stroke-linecap="round" stroke-linejoin="round"/>
<path d="M7.00016 23.6666V25.6666L5.3335 26.6666" stroke="white" stroke-width="1.8" stroke-miterlimit="10" stroke-linecap="round" stroke-linejoin="round"/>
</svg>
