<svg width="28" height="28" viewBox="0 0 28 28" fill="none" xmlns="http://www.w3.org/2000/svg">
<path d="M20.1665 2.17729L18.1665 4.17729C16.8485 3.61853 15.4314 3.33147 13.9998 3.33329C8.1065 3.33329 3.33317 8.10663 3.33317 14C3.33317 19.8933 8.1065 24.6666 13.9998 24.6666C19.8932 24.6666 24.6665 19.8933 24.6665 14C24.6683 12.5684 24.3813 11.1513 23.8225 9.83329L25.8225 7.83329C26.8177 9.7363 27.3361 11.8524 27.3332 14C27.3332 21.36 21.3598 27.3333 13.9998 27.3333C6.63984 27.3333 0.666504 21.36 0.666504 14C0.666504 6.63996 6.63984 0.666626 13.9998 0.666626C16.2238 0.666626 18.3212 1.21329 20.1665 2.17729ZM22.4852 3.62929L24.3705 5.51463L13.9998 15.8853L12.1145 14L22.4852 3.62929Z" fill="white"/>
</svg>
