<svg width="25" height="28" viewBox="0 0 25 28" fill="none" xmlns="http://www.w3.org/2000/svg">
<path d="M9.66683 0.666626C10.4028 0.666626 11.0002 1.26396 11.0002 1.99996V7.33329C11.0002 8.06929 10.4028 8.66663 9.66683 8.66663H7.00016V11.3333H13.6668V9.99996C13.6668 9.26396 14.2642 8.66663 15.0002 8.66663H23.0002C23.7362 8.66663 24.3335 9.26396 24.3335 9.99996V15.3333C24.3335 16.0693 23.7362 16.6666 23.0002 16.6666H15.0002C14.2642 16.6666 13.6668 16.0693 13.6668 15.3333V14H7.00016V22H13.6668V20.6666C13.6668 19.9306 14.2642 19.3333 15.0002 19.3333H23.0002C23.7362 19.3333 24.3335 19.9306 24.3335 20.6666V26C24.3335 26.736 23.7362 27.3333 23.0002 27.3333H15.0002C14.2642 27.3333 13.6668 26.736 13.6668 26V24.6666H5.66683C4.93083 24.6666 4.3335 24.0693 4.3335 23.3333V8.66663H1.66683C0.930829 8.66663 0.333496 8.06929 0.333496 7.33329V1.99996C0.333496 1.26396 0.930829 0.666626 1.66683 0.666626H9.66683ZM21.6668 22H16.3335V24.6666H21.6668V22ZM21.6668 11.3333H16.3335V14H21.6668V11.3333ZM8.3335 3.33329H3.00016V5.99996H8.3335V3.33329Z" fill="white"/>
</svg>
