<svg width="216" height="16" viewBox="0 0 216 16" fill="none" xmlns="http://www.w3.org/2000/svg">
<path d="M14.6548 15.1617L4.95277 6.63882V15.7329H0.5V2.89289C0.5 0.83078 1.77439 0 3.17015 0C3.76183 0 4.35351 0.140936 5.13483 0.83078L14.8444 9.34627V0.252201H19.32V13.0774C19.32 15.1395 18.0456 15.9925 16.6195 15.9925C16.0051 15.9925 15.4134 15.8516 14.6548 15.1617Z" fill="url(#paint0_linear_367_20897)"/>
<path d="M44.8613 7.98142C44.8613 13.515 40.9775 15.9851 33.2857 15.9851C25.5711 15.9851 21.71 13.5076 21.71 7.98142C21.71 2.45525 25.5711 0 33.2932 0C40.9851 0 44.8613 2.45525 44.8613 7.98142ZM39.9914 7.98142C39.9914 4.65088 38.2163 4.0278 33.2932 4.0278C28.3702 4.0278 26.5951 4.65088 26.5951 7.98142C26.5951 11.312 28.3702 11.9647 33.2932 11.9647C38.2163 11.9647 39.9914 11.3194 39.9914 7.98142Z" fill="url(#paint1_linear_367_20897)"/>
<path d="M57.9604 15.7399H47.3633V6.08954H52.2864V11.7566H57.968C60.6913 11.7566 62.6559 10.2731 62.6559 8.05523C62.6559 5.88185 60.623 4.27963 57.968 4.27963H47.3633L50.4886 0.251831H57.968C63.5055 0.251831 67.5032 3.37467 67.5032 7.84011C67.5032 12.3352 63.4524 15.7399 57.9604 15.7399Z" fill="url(#paint2_linear_367_20897)"/>
<path d="M88.3866 11.7566L85.2386 15.7399H69.999V0.251831H88.3411L85.1703 4.27963H74.9221V6.12663H87.4688L84.6545 9.64261H74.9221V11.7492H88.3866V11.7566Z" fill="url(#paint3_linear_367_20897)"/>
<path d="M115.028 9.97689C113.655 7.59582 113.018 6.43866 112.472 5.32601C111.971 6.43866 111.334 7.57357 109.961 9.95464L107.427 14.3533C106.858 15.3473 106.009 16 104.727 16C103.498 16 102.406 15.3102 101.981 13.8712L97.9604 0.267155H102.861L104.355 5.65981C104.856 7.39554 105.182 8.67138 105.417 9.91755C105.941 8.82715 106.555 7.64774 107.64 5.63755L109.771 1.75069C110.598 0.222649 111.402 0.0149536 112.563 0.0149536C113.746 0.0149536 114.573 0.222649 115.4 1.75069L117.509 5.65981C118.692 7.78868 119.238 8.87908 119.731 9.91755C119.989 8.69363 120.346 7.37329 120.824 5.65981L122.318 0.267155H127.097L123.001 13.8712C122.576 15.3102 121.484 16 120.255 16C119.003 16 118.146 15.377 117.554 14.3533L115.028 9.97689Z" fill="url(#paint4_linear_367_20897)"/>
<path d="M152.713 0.251831L159.836 10.5253L167.27 0.251831H173.043L162.916 14.2564C162.226 15.1614 161.262 15.9921 159.745 15.9921C158.281 15.9921 157.31 15.2281 156.62 14.2564L146.698 0.251831H152.713Z" fill="url(#paint5_linear_367_20897)"/>
<path d="M124.913 15.9921L134.827 1.98757C135.51 1.01585 136.481 0.251831 137.952 0.251831C139.469 0.251831 140.44 1.08261 141.123 1.98757L151.25 15.9921H145.477L138.043 5.71866L130.92 15.9921H124.913Z" fill="url(#paint6_linear_367_20897)"/>
<path d="M193.198 11.7566L190.05 15.7399H174.811V0.251831H193.153L189.982 4.27963H179.734V6.12663H192.28L189.466 9.64261H179.741V11.7492H193.198V11.7566Z" fill="url(#paint7_linear_367_20897)"/>
<path d="M209.56 6.43115C213.422 6.43115 215.5 7.84051 215.5 10.6666C215.5 13.8414 213.535 15.7329 208.711 15.7329H193.964L197.112 11.7496H209.09C210.251 11.7496 210.774 11.4233 210.774 10.6147C210.774 9.82845 210.251 9.50207 209.09 9.50207H200.473C196.399 9.50207 194.533 7.72183 194.533 5.05888C194.533 2.14374 196.521 0.244812 201.322 0.244812H215.075L211.927 4.27261H200.943C199.805 4.27261 199.267 4.54706 199.267 5.34076C199.267 6.12703 199.813 6.43115 200.943 6.43115H209.56Z" fill="url(#paint8_linear_367_20897)"/>
<defs>
<linearGradient id="paint0_linear_367_20897" x1="21.0492" y1="7.99559" x2="1.31895" y2="7.99559" gradientUnits="userSpaceOnUse">
<stop stop-color="#E7203D" stop-opacity="0"/>
<stop offset="0.3631" stop-color="#E11B49"/>
<stop offset="0.6997" stop-color="#DB1755"/>
<stop offset="1" stop-color="#D7145F"/>
</linearGradient>
<linearGradient id="paint1_linear_367_20897" x1="48.1791" y1="7.99559" x2="22.0286" y2="7.99559" gradientUnits="userSpaceOnUse">
<stop stop-color="#E7203D" stop-opacity="0"/>
<stop offset="0.3631" stop-color="#E11B49"/>
<stop offset="0.6997" stop-color="#DB1755"/>
<stop offset="1" stop-color="#D7145F"/>
</linearGradient>
<linearGradient id="paint2_linear_367_20897" x1="70.6925" y1="7.99522" x2="47.7583" y2="7.99522" gradientUnits="userSpaceOnUse">
<stop stop-color="#E7203D" stop-opacity="0"/>
<stop offset="0.3631" stop-color="#E11B49"/>
<stop offset="0.6997" stop-color="#DB1755"/>
<stop offset="1" stop-color="#D7145F"/>
</linearGradient>
<linearGradient id="paint3_linear_367_20897" x1="89.7114" y1="7.99522" x2="69.0141" y2="7.99522" gradientUnits="userSpaceOnUse">
<stop stop-color="#E7203D" stop-opacity="0"/>
<stop offset="0.3631" stop-color="#E11B49"/>
<stop offset="0.6997" stop-color="#DB1755"/>
<stop offset="1" stop-color="#D7145F"/>
</linearGradient>
<linearGradient id="paint4_linear_367_20897" x1="127.47" y1="7.99571" x2="98.0996" y2="7.99571" gradientUnits="userSpaceOnUse">
<stop stop-color="#E7203D" stop-opacity="0"/>
<stop offset="0.3631" stop-color="#E11B49"/>
<stop offset="0.6997" stop-color="#DB1755"/>
<stop offset="1" stop-color="#D7145F"/>
</linearGradient>
<linearGradient id="paint5_linear_367_20897" x1="175.016" y1="8.12243" x2="145.777" y2="8.12243" gradientUnits="userSpaceOnUse">
<stop stop-color="#E7203D" stop-opacity="0"/>
<stop offset="0.3631" stop-color="#E11B49"/>
<stop offset="0.6997" stop-color="#DB1755"/>
<stop offset="1" stop-color="#D7145F"/>
</linearGradient>
<linearGradient id="paint6_linear_367_20897" x1="150.125" y1="8.12243" x2="128.028" y2="8.12243" gradientUnits="userSpaceOnUse">
<stop stop-color="#E7203D" stop-opacity="0"/>
<stop offset="0.3631" stop-color="#E11B49"/>
<stop offset="0.6997" stop-color="#DB1755"/>
<stop offset="1" stop-color="#D7145F"/>
</linearGradient>
<linearGradient id="paint7_linear_367_20897" x1="194.314" y1="7.99522" x2="172.212" y2="7.99522" gradientUnits="userSpaceOnUse">
<stop stop-color="#E7203D" stop-opacity="0"/>
<stop offset="0.3631" stop-color="#E11B49"/>
<stop offset="0.6997" stop-color="#DB1755"/>
<stop offset="1" stop-color="#D7145F"/>
</linearGradient>
<linearGradient id="paint8_linear_367_20897" x1="217.948" y1="7.99562" x2="194.594" y2="7.99562" gradientUnits="userSpaceOnUse">
<stop stop-color="#E7203D" stop-opacity="0"/>
<stop offset="0.3631" stop-color="#E11B49"/>
<stop offset="0.6997" stop-color="#DB1755"/>
<stop offset="1" stop-color="#D7145F"/>
</linearGradient>
</defs>
</svg>
