<svg width="54" height="16" viewBox="0 0 54 16" fill="none" xmlns="http://www.w3.org/2000/svg">
<path d="M14.6768 15.1617L4.97474 6.63882V15.7329H0.521973V2.89289C0.521973 0.83078 1.79636 0 3.19212 0C3.7838 0 4.37548 0.140936 5.1568 0.83078L14.8664 9.34627V0.252201H19.3419V13.0774C19.3419 15.1395 18.0676 15.9925 16.6415 15.9925C16.027 15.9925 15.4353 15.8516 14.6768 15.1617Z" fill="url(#paint0_linear_367_21649)"/>
<path d="M41.4095 9.97683C40.0365 7.59576 39.3993 6.4386 38.8531 5.32595C38.3525 6.4386 37.7153 7.57351 36.3423 9.95458L33.8087 14.3533C33.2398 15.3472 32.3902 16 31.1082 16C29.8793 16 28.787 15.3101 28.3622 13.8711L24.3418 0.267094H29.2421L30.7365 5.65974C31.2372 7.39548 31.5633 8.67132 31.7985 9.91749C32.3219 8.82709 32.9363 7.64768 34.0211 5.63749L36.1526 1.75063C36.9795 0.222588 37.7836 0.0148926 38.9442 0.0148926C40.1275 0.0148926 40.9544 0.222588 41.7812 1.75063L43.89 5.65974C45.0734 7.78862 45.6195 8.87902 46.1126 9.91749C46.3705 8.69357 46.727 7.37323 47.2049 5.65974L48.6993 0.267094H53.4782L49.382 13.8711C48.9572 15.3101 47.8649 16 46.636 16C45.3844 16 44.5272 15.3769 43.9355 14.3533L41.4095 9.97683Z" fill="url(#paint1_linear_367_21649)"/>
<defs>
<linearGradient id="paint0_linear_367_21649" x1="21.0712" y1="7.99559" x2="1.34092" y2="7.99559" gradientUnits="userSpaceOnUse">
<stop stop-color="#E7203D" stop-opacity="0"/>
<stop offset="0.3631" stop-color="#E11B49"/>
<stop offset="0.6997" stop-color="#DB1755"/>
<stop offset="1" stop-color="#D7145F"/>
</linearGradient>
<linearGradient id="paint1_linear_367_21649" x1="53.851" y1="7.99564" x2="24.481" y2="7.99564" gradientUnits="userSpaceOnUse">
<stop stop-color="#E7203D" stop-opacity="0"/>
<stop offset="0.3631" stop-color="#E11B49"/>
<stop offset="0.6997" stop-color="#DB1755"/>
<stop offset="1" stop-color="#D7145F"/>
</linearGradient>
</defs>
</svg>
