<svg width="28" height="24" viewBox="0 0 28 24" fill="none" xmlns="http://www.w3.org/2000/svg">
<path d="M21.9998 5.33333H25.9998C26.3535 5.33333 26.6926 5.47381 26.9426 5.72386C27.1927 5.97391 27.3332 6.31305 27.3332 6.66667V22.6667C27.3332 23.0203 27.1927 23.3594 26.9426 23.6095C26.6926 23.8595 26.3535 24 25.9998 24H1.99984C1.64622 24 1.30708 23.8595 1.05703 23.6095C0.80698 23.3594 0.666504 23.0203 0.666504 22.6667V1.33333C0.666504 0.979711 0.80698 0.640573 1.05703 0.390524C1.30708 0.140476 1.64622 0 1.99984 0H21.9998V5.33333ZM3.33317 8V21.3333H24.6665V8H3.33317ZM3.33317 2.66667V5.33333H19.3332V2.66667H3.33317ZM17.9998 13.3333H21.9998V16H17.9998V13.3333Z" fill="white"/>
</svg>
